<svg width="32" height="32" viewBox="0 0 32 32" fill="none" xmlns="http://www.w3.org/2000/svg">
<path d="M16.2666 15.7333L14.3866 17.6133C13.3466 18.6533 13.3466 20.3467 14.3866 21.3867C15.4266 22.4267 17.1199 22.4267 18.1599 21.3867L21.1199 18.4267C23.1999 16.3467 23.1999 12.9733 21.1199 10.88C19.0399 8.79998 15.6666 8.79998 13.5732 10.88L10.3465 14.1067C8.55986 15.8933 8.55986 18.7867 10.3465 20.5733" stroke="#292D32" stroke-width="2" stroke-linecap="round" stroke-linejoin="round"/>
<path d="M12 29.3333H20C26.6667 29.3333 29.3334 26.6667 29.3334 20V12C29.3334 5.33332 26.6667 2.66666 20 2.66666H12C5.33335 2.66666 2.66669 5.33332 2.66669 12V20C2.66669 26.6667 5.33335 29.3333 12 29.3333Z" stroke="#292D32" stroke-width="2" stroke-linecap="round" stroke-linejoin="round"/>
</svg>
