<svg width="32" height="32" viewBox="0 0 32 32" fill="none" xmlns="http://www.w3.org/2000/svg">
<path d="M4.22672 9.91992L16 16.7332L27.6933 9.95988" stroke="#292D32" stroke-width="2" stroke-linecap="round" stroke-linejoin="round"/>
<path d="M16 28.8132V16.7199" stroke="#292D32" stroke-width="2" stroke-linecap="round" stroke-linejoin="round"/>
<path d="M13.24 3.30666L6.12 7.2667C4.50667 8.16003 3.18668 10.4 3.18668 12.24V19.7733C3.18668 21.6133 4.50667 23.8533 6.12 24.7467L13.24 28.7067C14.76 29.5467 17.2533 29.5467 18.7733 28.7067L25.8933 24.7467C27.5067 23.8533 28.8267 21.6133 28.8267 19.7733V12.24C28.8267 10.4 27.5067 8.16003 25.8933 7.2667L18.7733 3.30666C17.24 2.45332 14.76 2.45332 13.24 3.30666Z" stroke="#292D32" stroke-width="2" stroke-linecap="round" stroke-linejoin="round"/>
<path d="M22.6667 17.6533V12.7734L10.0133 5.46664" stroke="#292D32" stroke-width="2" stroke-linecap="round" stroke-linejoin="round"/>
</svg>
