<svg width="32" height="32" viewBox="0 0 32 32" fill="none" xmlns="http://www.w3.org/2000/svg">
<path d="M2.66663 29.3333H29.3333" stroke="#292D32" stroke-width="2" stroke-linecap="round" stroke-linejoin="round"/>
<path d="M4.14661 29.3333V17.3333C4.14661 15.12 6.13327 13.3333 8.58661 13.3333H23.3999C25.8533 13.3333 27.8399 15.12 27.8399 17.3333V29.3333" stroke="#292D32" stroke-width="2" stroke-linecap="round" stroke-linejoin="round"/>
<path d="M7.41345 13.3333V9.56C7.41345 7.96 8.85345 6.66666 10.6401 6.66666H21.3735C23.1468 6.66666 24.5868 7.96 24.5868 9.56V13.3333" stroke="#292D32" stroke-width="2" stroke-linecap="round" stroke-linejoin="round"/>
<path d="M4.70667 18.64L5.2 18.6533C6.18666 18.6667 6.97333 19.4667 6.97333 20.4533V20.8933C6.97333 21.88 7.77333 22.6933 8.77333 22.6933C9.76 22.6933 10.5733 21.8933 10.5733 20.8933V20.48C10.5733 19.4933 11.3733 18.68 12.3733 18.68C13.36 18.68 14.1733 19.48 14.1733 20.48V20.8933C14.1733 21.88 14.9733 22.6933 15.9733 22.6933C16.96 22.6933 17.7733 21.8933 17.7733 20.8933V20.48C17.7733 19.4933 18.5733 18.68 19.5733 18.68C20.56 18.68 21.3733 19.48 21.3733 20.48V20.8933C21.3733 21.88 22.1733 22.6933 23.1733 22.6933C24.16 22.6933 24.9733 21.8933 24.9733 20.8933V20.48C24.9733 19.4933 25.7733 18.68 26.7733 18.68H27.3733" stroke="#292D32" stroke-width="2" stroke-linecap="round" stroke-linejoin="round"/>
<path d="M10.6666 6.66667V4" stroke="#292D32" stroke-width="2" stroke-linecap="round" stroke-linejoin="round"/>
<path d="M21.3334 6.66667V4" stroke="#292D32" stroke-width="2" stroke-linecap="round" stroke-linejoin="round"/>
<path d="M16 6.66666V2.66666" stroke="#292D32" stroke-width="2" stroke-linecap="round" stroke-linejoin="round"/>
</svg>
