<svg width="32" height="32" viewBox="0 0 32 32" fill="none" xmlns="http://www.w3.org/2000/svg">
<path d="M11.3333 25.3333H10.6667C5.33332 25.3333 2.66666 24 2.66666 17.3333V10.6667C2.66666 5.33332 5.33332 2.66666 10.6667 2.66666H21.3333C26.6667 2.66666 29.3333 5.33332 29.3333 10.6667V17.3333C29.3333 22.6667 26.6667 25.3333 21.3333 25.3333H20.6667C20.2533 25.3333 19.8533 25.5333 19.6 25.8667L17.6 28.5333C16.72 29.7067 15.28 29.7067 14.4 28.5333L12.4 25.8667C12.1867 25.5733 11.6933 25.3333 11.3333 25.3333Z" stroke="#292D32" stroke-width="2" stroke-miterlimit="10" stroke-linecap="round" stroke-linejoin="round"/>
<path d="M21.3287 14.6667H21.3405" stroke="#292D32" stroke-width="2.66667" stroke-linecap="round" stroke-linejoin="round"/>
<path d="M15.994 14.6667H16.006" stroke="#292D32" stroke-width="2.66667" stroke-linecap="round" stroke-linejoin="round"/>
<path d="M10.6593 14.6667H10.6713" stroke="#292D32" stroke-width="2.66667" stroke-linecap="round" stroke-linejoin="round"/>
</svg>
