<svg width="32" height="32" viewBox="0 0 32 32" fill="none" xmlns="http://www.w3.org/2000/svg">
<path d="M12 29.3334H20C26.6667 29.3334 29.3333 26.6667 29.3333 20V12C29.3333 5.33335 26.6667 2.66669 20 2.66669H12C5.33332 2.66669 2.66666 5.33335 2.66666 12V20C2.66666 26.6667 5.33332 29.3334 12 29.3334Z" stroke="#292D32" stroke-width="2" stroke-linecap="round" stroke-linejoin="round"/>
<path d="M17.7119 11.64C18.2269 11.64 18.7769 11.8 18.7769 11.8L19.1069 9.83998C19.1069 9.83998 18.4069 9.59998 16.7369 9.59998C15.7119 9.59998 15.1169 9.98998 14.6819 10.565C14.2719 11.11 14.2569 11.985 14.2569 12.55V13.835H12.9319V15.75H14.2569V22.4H16.7369V15.75H18.7019L18.8469 13.835H16.7369V12.34C16.7369 11.825 17.1969 11.64 17.7119 11.64Z" fill="#292D32"/>
</svg>
