<svg width="32" height="32" viewBox="0 0 32 32" fill="none" xmlns="http://www.w3.org/2000/svg">
<path d="M10.88 8.8667H21.1066C21.96 8.8667 22.6533 9.56003 22.6533 10.4134V12.12C22.6533 12.7467 22.2666 13.52 21.88 13.9067L18.5466 16.8533C18.08 17.24 17.7733 18.0133 17.7733 18.64V21.9733C17.7733 22.44 17.4666 23.0533 17.08 23.2933L16 23.9733C14.9866 24.6 13.6 23.8933 13.6 22.6533V18.5467C13.6 18 13.2933 17.3067 12.9733 16.92L10.0266 13.8133C9.63998 13.44 9.33331 12.7334 9.33331 12.2667V10.4934C9.33331 9.56003 10.0266 8.8667 10.88 8.8667Z" stroke="#292D32" stroke-width="2" stroke-miterlimit="10" stroke-linecap="round" stroke-linejoin="round"/>
<path d="M12 29.3333H20C26.6667 29.3333 29.3334 26.6667 29.3334 20V12C29.3334 5.33332 26.6667 2.66666 20 2.66666H12C5.33335 2.66666 2.66669 5.33332 2.66669 12V20C2.66669 26.6667 5.33335 29.3333 12 29.3333Z" stroke="#292D32" stroke-width="2" stroke-linecap="round" stroke-linejoin="round"/>
</svg>
