<svg width="32" height="32" viewBox="0 0 32 32" fill="none" xmlns="http://www.w3.org/2000/svg">
<path d="M12 13.3333C13.4728 13.3333 14.6667 12.1394 14.6667 10.6667C14.6667 9.19391 13.4728 8 12 8C10.5273 8 9.33334 9.19391 9.33334 10.6667C9.33334 12.1394 10.5273 13.3333 12 13.3333Z" stroke="#292D32" stroke-width="2" stroke-linecap="round" stroke-linejoin="round"/>
<path d="M17.3333 2.66666H12C5.33332 2.66666 2.66666 5.33332 2.66666 12V20C2.66666 26.6667 5.33332 29.3333 12 29.3333H20C26.6667 29.3333 29.3333 26.6667 29.3333 20V13.3333" stroke="#292D32" stroke-width="2" stroke-linecap="round" stroke-linejoin="round"/>
<path d="M21 6.66666H28.3333" stroke="#292D32" stroke-width="2" stroke-linecap="round"/>
<path d="M24.6667 10.3333V3" stroke="#292D32" stroke-width="2" stroke-linecap="round"/>
<path d="M3.56006 25.2668L10.1334 20.8535C11.1867 20.1468 12.7067 20.2268 13.6533 21.0401L14.0933 21.4268C15.1333 22.3201 16.8133 22.3201 17.8533 21.4268L23.4 16.6668C24.44 15.7735 26.12 15.7735 27.16 16.6668L29.3333 18.5335" stroke="#292D32" stroke-width="2" stroke-linecap="round" stroke-linejoin="round"/>
</svg>
