<svg width="32" height="32" viewBox="0 0 32 32" fill="none" xmlns="http://www.w3.org/2000/svg">
<path d="M12.0001 29.3333H20.0001C26.6667 29.3333 29.3334 26.6666 29.3334 20V12C29.3334 5.33329 26.6667 2.66663 20.0001 2.66663H12.0001C5.33341 2.66663 2.66675 5.33329 2.66675 12V20C2.66675 26.6666 5.33341 29.3333 12.0001 29.3333Z" stroke="#292D32" stroke-width="2" stroke-linecap="round" stroke-linejoin="round"/>
<path d="M11.9999 13.3333C13.4727 13.3333 14.6666 12.1394 14.6666 10.6667C14.6666 9.19391 13.4727 8 11.9999 8C10.5272 8 9.33325 9.19391 9.33325 10.6667C9.33325 12.1394 10.5272 13.3333 11.9999 13.3333Z" stroke="#292D32" stroke-width="2" stroke-linecap="round" stroke-linejoin="round"/>
<path d="M3.56006 25.2668L10.1334 20.8535C11.1867 20.1468 12.7067 20.2268 13.6533 21.0402L14.0933 21.4268C15.1333 22.3202 16.8133 22.3202 17.8533 21.4268L23.4 16.6668C24.44 15.7735 26.12 15.7735 27.16 16.6668L29.3333 18.5335" stroke="#292D32" stroke-width="2" stroke-linecap="round" stroke-linejoin="round"/>
</svg>
