<svg width="32" height="32" viewBox="0 0 32 32" fill="none" xmlns="http://www.w3.org/2000/svg">
<path d="M12 13.3333C13.4728 13.3333 14.6667 12.1394 14.6667 10.6667C14.6667 9.19391 13.4728 8 12 8C10.5273 8 9.33334 9.19391 9.33334 10.6667C9.33334 12.1394 10.5273 13.3333 12 13.3333Z" stroke="#292D32" stroke-width="2" stroke-linecap="round" stroke-linejoin="round"/>
<path d="M17.3333 2.66666H12C5.33332 2.66666 2.66666 5.33332 2.66666 12V20C2.66666 26.6667 5.33332 29.3333 12 29.3333H20C26.6667 29.3333 29.3333 26.6667 29.3333 20V13.3333" stroke="#292D32" stroke-width="2" stroke-linecap="round" stroke-linejoin="round"/>
<path d="M22.0801 9.25341L27.2535 4.08008" stroke="#292D32" stroke-width="2" stroke-linecap="round"/>
<path d="M27.2535 9.25341L22.0801 4.08008" stroke="#292D32" stroke-width="2" stroke-linecap="round"/>
<path d="M3.55991 25.2668L10.1332 20.8535C11.1866 20.1468 12.7066 20.2268 13.6532 21.0401L14.0932 21.4268C15.1332 22.3201 16.8132 22.3201 17.8532 21.4268L23.3999 16.6668C24.4399 15.7735 26.1199 15.7735 27.1599 16.6668L29.3332 18.5335" stroke="#292D32" stroke-width="2" stroke-linecap="round" stroke-linejoin="round"/>
</svg>
