<svg width="32" height="32" viewBox="0 0 32 32" fill="none" xmlns="http://www.w3.org/2000/svg">
<path d="M12 29.3334H20C26.6667 29.3334 29.3333 26.6667 29.3333 20V12C29.3333 5.33335 26.6667 2.66669 20 2.66669H12C5.33332 2.66669 2.66666 5.33335 2.66666 12V20C2.66666 26.6667 5.33332 29.3334 12 29.3334Z" stroke="#292D32" stroke-width="2" stroke-linecap="round" stroke-linejoin="round"/>
<path d="M16 20.6666C18.5773 20.6666 20.6667 18.5773 20.6667 16C20.6667 13.4226 18.5773 11.3333 16 11.3333C13.4227 11.3333 11.3333 13.4226 11.3333 16C11.3333 18.5773 13.4227 20.6666 16 20.6666Z" stroke="#292D32" stroke-width="2" stroke-linecap="round" stroke-linejoin="round"/>
<path d="M23.5148 9.33331H23.5303" stroke="#292D32" stroke-width="2.66667" stroke-linecap="round" stroke-linejoin="round"/>
</svg>
