<svg width="32" height="32" viewBox="0 0 32 32" fill="none" xmlns="http://www.w3.org/2000/svg">
<path d="M16.0267 3.87988C11.6133 3.87988 8.02663 7.46655 8.02663 11.8799V15.7332C8.02663 16.5465 7.67996 17.7865 7.26663 18.4799L5.73329 21.0265C4.78663 22.5999 5.43996 24.3465 7.17329 24.9332C12.92 26.8532 19.12 26.8532 24.8667 24.9332C26.48 24.3999 27.1867 22.4932 26.3067 21.0265L24.7733 18.4799C24.3733 17.7865 24.0267 16.5465 24.0267 15.7332V11.8799C24.0267 7.47988 20.4267 3.87988 16.0267 3.87988Z" stroke="#292D32" stroke-width="2" stroke-miterlimit="10" stroke-linecap="round" fill="currentColor"/>
<path d="M18.4933 4.26658C18.08 4.14658 17.6533 4.05324 17.2133 3.99991C15.9333 3.83991 14.7067 3.93324 13.56 4.26658C13.9467 3.27991 14.9067 2.58658 16.0267 2.58658C17.1467 2.58658 18.1067 3.27991 18.4933 4.26658Z" stroke="#292D32" stroke-width="2" stroke-miterlimit="10" stroke-linecap="round" stroke-linejoin="round"/>
<path d="M20.0267 25.4135C20.0267 27.6135 18.2267 29.4135 16.0267 29.4135C14.9333 29.4135 13.92 28.9601 13.2 28.2401C12.48 27.5201 12.0267 26.5068 12.0267 25.4135" stroke="#292D32" stroke-width="2" stroke-miterlimit="10"/>
</svg>
