<svg width="32" height="32" viewBox="0 0 32 32" fill="none" xmlns="http://www.w3.org/2000/svg">
<path d="M12 29.3334H20C26.6667 29.3334 29.3333 26.6667 29.3333 20V12C29.3333 5.33335 26.6667 2.66669 20 2.66669H12C5.33334 2.66669 2.66667 5.33335 2.66667 12V20C2.66667 26.6667 5.33334 29.3334 12 29.3334Z" stroke="#292D32" stroke-width="2" stroke-linecap="round" stroke-linejoin="round"/>
<path d="M12.379 18.6737C12.3789 18.9391 12.4311 19.2019 12.5326 19.4472C12.6341 19.6925 12.7829 19.9153 12.9706 20.103C13.1583 20.2908 13.3811 20.4397 13.6263 20.5413C13.8715 20.6429 14.1343 20.6952 14.3998 20.6952C14.9413 20.7033 15.4645 20.4988 15.8571 20.1256C16.2496 19.7524 16.4802 19.2403 16.4995 18.699L16.5227 9.59998H18.3892C18.474 10.4108 18.8411 11.1661 19.4264 11.7336C20.0117 12.3012 20.7779 12.6449 21.591 12.7047V14.8732C21.4845 14.8833 21.3774 14.8891 21.2702 14.8891C20.6926 14.8895 20.124 14.7459 19.6158 14.4713C19.1076 14.1968 18.6758 13.7998 18.3596 13.3165V18.6744C18.3596 19.4575 18.1273 20.2231 17.6922 20.8743C17.2571 21.5255 16.6387 22.033 15.9151 22.3327C15.1916 22.6324 14.3954 22.7109 13.6273 22.5581C12.8591 22.4053 12.1536 22.0281 11.5998 21.4744C11.046 20.9206 10.6689 20.215 10.5161 19.4469C10.3633 18.6788 10.4417 17.8826 10.7414 17.159C11.0411 16.4355 11.5487 15.817 12.1998 15.3819C12.851 14.9468 13.6166 14.7146 14.3998 14.7146C14.4823 14.7146 14.5634 14.7218 14.6445 14.7269V16.6818C14.5635 16.6689 14.4818 16.6606 14.3998 16.6572C13.8646 16.6572 13.3512 16.8695 12.9724 17.2475C12.5935 17.6256 12.3801 18.1385 12.379 18.6737Z" fill="#292D32"/>
</svg>
