<svg width="32" height="32" viewBox="0 0 32 32" fill="none" xmlns="http://www.w3.org/2000/svg">
<path d="M16.88 3.35753L16.84 3.45087L12.9733 12.4242H9.17328C8.26661 12.4242 7.39995 12.6109 6.61328 12.9442L8.94661 7.37087L8.99995 7.23753L9.09328 7.0242C9.11995 6.9442 9.14661 6.8642 9.18661 6.79753C10.9333 2.75753 12.9066 1.83753 16.88 3.35753Z" stroke="#292D32" stroke-width="2" stroke-linecap="round" stroke-linejoin="round"/>
<path d="M24.0665 12.6908C23.4665 12.5041 22.8265 12.4241 22.1865 12.4241H12.9731L16.8398 3.45076L16.8798 3.35742C17.0798 3.42409 17.2665 3.51742 17.4665 3.59742L20.4132 4.83742C22.0532 5.51742 23.1998 6.22409 23.8932 7.07742C24.0265 7.23742 24.1332 7.38409 24.2265 7.55742C24.3465 7.74409 24.4398 7.93076 24.4932 8.13076C24.5465 8.25076 24.5865 8.37075 24.6132 8.47742C24.9732 9.59742 24.7598 10.9708 24.0665 12.6908Z" stroke="#292D32" stroke-width="2" stroke-linecap="round" stroke-linejoin="round"/>
<path d="M28.6954 18.9312V21.5312C28.6954 21.7979 28.6821 22.0645 28.6688 22.3312C28.4154 26.9845 25.8154 29.3312 20.8821 29.3312H10.4821C10.1621 29.3312 9.84213 29.3045 9.53546 29.2645C5.29546 28.9845 3.0288 26.7179 2.7488 22.4779C2.7088 22.1712 2.68213 21.8512 2.68213 21.5312V18.9312C2.68213 16.2512 4.3088 13.9445 6.6288 12.9445C7.4288 12.6111 8.28213 12.4245 9.1888 12.4245H22.2021C22.8554 12.4245 23.4954 12.5178 24.0821 12.6911C26.7354 13.5045 28.6954 15.9845 28.6954 18.9312Z" stroke="#292D32" stroke-width="2" stroke-linecap="round" stroke-linejoin="round"/>
<path d="M8.9465 7.37079L6.61317 12.9441C4.29317 13.9441 2.6665 16.2508 2.6665 18.9308V15.0241C2.6665 11.2375 5.35984 8.07746 8.9465 7.37079Z" stroke="#292D32" stroke-width="2" stroke-linecap="round" stroke-linejoin="round"/>
<path d="M28.6915 15.0236V18.9303C28.6915 15.9969 26.7448 13.5036 24.0781 12.7036C24.7715 10.9702 24.9715 9.61022 24.6381 8.47688C24.6115 8.35688 24.5715 8.23689 24.5181 8.13022C26.9981 9.41022 28.6915 12.0369 28.6915 15.0236Z" stroke="#292D32" stroke-width="2" stroke-linecap="round" stroke-linejoin="round"/>
</svg>
