<svg width="32" height="32" viewBox="0 0 32 32" fill="none" xmlns="http://www.w3.org/2000/svg">
<path d="M12 29.3334H20C26.6667 29.3334 29.3333 26.6667 29.3333 20V12C29.3333 5.33335 26.6667 2.66669 20 2.66669H12C5.33332 2.66669 2.66666 5.33335 2.66666 12V20C2.66666 26.6667 5.33332 29.3334 12 29.3334Z" stroke="#292D32" stroke-width="2" stroke-linecap="round" stroke-linejoin="round"/>
<path d="M13.8655 20.8597C12.9329 20.8597 12.3266 20.1602 12.28 19.1809C12.28 18.9943 12.28 12.8388 12.28 12.7921C12.3266 11.8595 12.9795 11.16 13.8655 11.16C14.1453 11.16 14.4251 11.2066 14.6583 11.3465C15.1713 11.6263 20.7672 14.6575 20.7672 14.6575C21.2802 14.9839 21.56 15.4502 21.56 15.9632C21.56 16.4762 21.2802 16.9425 20.8139 17.2689C20.8139 17.2689 14.7049 20.5799 14.6583 20.6265C14.4251 20.7664 14.1453 20.8597 13.8655 20.8597ZM14.2386 13.3051V18.5746C14.2386 18.6213 14.2386 18.6679 14.2386 18.6679L19.1817 16.0098C19.1817 16.0098 14.565 13.4916 14.2386 13.3051Z" fill="#292D32"/>
</svg>
